<?xml version="1.0" standalone="no"?>
<!DOCTYPE svg PUBLIC "-//W3C//DTD SVG 20010904//EN"
 "http://www.w3.org/TR/2001/REC-SVG-20010904/DTD/svg10.dtd">
<svg version="1.0" xmlns="http://www.w3.org/2000/svg"
 width="1136.000000pt" height="1136.000000pt" viewBox="0 0 1136.000000 1136.000000"
 preserveAspectRatio="xMidYMid meet">
<metadata>
Created by potrace 1.11, written by Peter Selinger 2001-2013
</metadata>
<g transform="translate(0.000000,1136.000000) scale(0.100000,-0.100000)"
fill="#000000" stroke="none">
<path d="M3299 11356 c-2 -2 -35 -7 -74 -11 -38 -3 -104 -13 -145 -22 -41 -8
-84 -16 -95 -18 -11 -1 -28 -6 -37 -9 -9 -4 -25 -9 -35 -11 -10 -2 -18 -4 -18
-5 0 -1 -193 -69 -210 -73 -5 -2 -25 -11 -42 -20 -18 -10 -33 -14 -33 -10 0 5
-4 4 -8 -2 -9 -13 -104 -61 -114 -57 -4 1 -8 -2 -8 -8 0 -5 -5 -10 -12 -10
-15 0 -251 -157 -298 -198 -19 -17 -39 -28 -44 -25 -5 3 -6 1 -3 -4 4 -6 -5
-18 -19 -28 -34 -22 -186 -175 -244 -244 -25 -30 -53 -63 -62 -73 -10 -10 -18
-21 -18 -24 0 -3 -13 -23 -30 -44 -16 -21 -30 -43 -30 -50 0 -7 -6 -10 -14 -7
-9 4 -13 0 -11 -11 1 -9 -1 -19 -5 -22 -21 -16 -147 -249 -176 -326 -10 -27
-24 -60 -31 -74 -7 -14 -13 -31 -13 -37 0 -7 -4 -13 -9 -13 -5 0 -7 -9 -4 -20
3 -12 0 -20 -8 -20 -7 0 -10 -3 -6 -6 3 -4 0 -23 -8 -43 -12 -31 -21 -61 -42
-146 -5 -20 -27 -132 -37 -190 -12 -70 -19 -132 -18 -154 1 -14 -4 -28 -10
-33 -10 -6 -10 -8 0 -8 7 0 10 -4 7 -10 -7 -11 -8 -9110 -2 -9117 5 -5 31 20
172 172 61 65 151 160 201 211 49 52 89 94 87 94 -1 0 29 32 67 72 39 40 70
76 70 81 0 4 5 5 10 2 6 -3 10 -2 10 3 0 5 28 39 62 75 35 36 86 90 115 120
28 31 54 52 58 49 4 -4 5 -2 3 4 -2 6 60 78 137 159 77 81 142 151 143 156 2
5 10 9 18 9 9 0 13 4 10 8 -3 5 3 15 12 24 9 8 39 38 65 66 27 29 53 49 59 46
7 -4 8 -2 4 5 -5 7 20 40 62 84 73 75 114 118 297 313 61 64 125 133 144 153
19 20 38 35 43 33 4 -1 7 2 6 7 -5 14 155 180 167 174 5 -4 7 -3 3 1 -4 5 8
25 27 45 18 20 43 47 54 59 11 13 25 21 30 17 6 -3 9 0 6 7 -5 11 32 14 199
14 144 0 203 -3 199 -10 -5 -8 -3 -8 8 0 8 5 29 11 48 13 26 2 31 0 25 -11 -6
-10 -4 -11 7 -2 8 5 29 11 48 13 26 2 31 0 25 -11 -6 -10 -4 -11 7 -2 8 5 29
11 48 13 26 2 31 0 25 -11 -6 -10 -4 -11 7 -2 8 5 29 11 48 13 26 2 31 0 25
-11 -6 -10 -4 -11 7 -2 8 5 29 11 48 13 26 2 31 0 25 -11 -6 -10 -4 -11 7 -2
8 5 29 11 48 13 26 2 31 0 25 -11 -6 -10 -4 -11 7 -2 8 5 29 11 48 13 26 2 31
0 25 -11 -6 -10 -4 -11 7 -2 8 5 29 11 48 13 26 2 31 0 25 -11 -6 -10 -4 -11
7 -2 8 5 29 11 48 13 26 2 31 0 25 -11 -6 -10 -4 -11 7 -2 8 5 29 11 48 13 26
2 31 0 25 -11 -6 -10 -4 -11 7 -2 8 5 29 11 48 13 26 2 31 0 25 -11 -6 -10 -4
-11 7 -2 8 5 29 11 48 13 26 2 31 0 25 -11 -6 -10 -4 -11 7 -2 8 5 29 11 48
13 26 2 31 0 25 -11 -6 -10 -4 -11 7 -2 8 5 29 11 48 13 26 2 31 0 25 -11 -6
-10 -4 -11 7 -2 8 5 29 11 48 13 26 2 31 0 25 -11 -6 -10 -5 -11 7 -2 10 8
361 10 1198 10 l1183 -1 82 85 c101 105 117 120 128 120 5 0 7 4 4 8 -3 5 4
15 15 22 10 8 19 20 19 26 0 7 -57 72 -127 144 -71 73 -127 137 -125 142 1 5
-2 7 -7 4 -11 -7 -69 62 -109 131 -31 52 -66 143 -78 203 -20 97 -2 311 29
349 7 8 11 16 9 18 -6 7 11 53 20 53 5 0 7 4 4 8 -3 5 3 18 14 29 10 12 17 23
14 26 -2 2 9 19 26 37 16 18 30 35 30 38 0 26 183 157 203 146 6 -4 9 -3 4 1
-9 10 37 31 106 49 33 9 47 10 47 2 0 -6 4 -5 9 3 8 13 124 17 191 7 81 -12
176 -51 255 -106 55 -37 205 -186 205 -203 0 -6 2 -8 5 -5 8 7 131 -122 127
-133 -1 -5 1 -8 5 -7 5 0 17 -3 27 -7 14 -6 23 -3 33 11 8 10 19 18 24 16 6
-1 8 2 5 6 -7 12 30 46 42 38 5 -3 9 1 8 9 -1 17 251 275 270 275 7 0 14 4 16
9 4 11 128 74 128 65 0 -4 6 -2 13 4 7 6 28 14 47 17 18 3 37 8 42 11 16 10
192 6 221 -5 15 -6 27 -9 27 -6 0 6 79 -22 130 -47 80 -39 209 -151 210 -181
1 -28 42 75 70 177 17 61 34 118 37 126 3 8 5 18 5 22 -1 4 4 38 12 75 8 38
17 100 21 138 4 39 11 75 16 82 7 7 6 14 -1 18 -6 3 -7 11 -4 17 8 13 8 4682
0 4803 -3 50 -8 101 -10 115 -3 14 -9 57 -15 95 -16 99 -19 120 -22 123 -1 1
-2 5 -3 10 -9 35 -17 70 -20 87 -3 11 -11 39 -20 63 -8 23 -15 43 -15 45 1 5
-13 44 -33 96 -12 30 -21 60 -21 68 0 7 -4 13 -9 13 -4 0 -8 5 -8 11 0 18
-100 214 -158 308 -12 19 -18 39 -15 44 3 6 1 7 -6 3 -6 -4 -14 0 -18 10 -4
10 -12 25 -19 34 -64 79 -112 149 -106 156 4 4 2 5 -4 1 -5 -3 -19 6 -30 21
-25 35 -222 231 -264 263 -18 13 -40 31 -49 39 -10 8 -39 31 -67 50 -27 19
-50 38 -52 42 -2 4 -8 8 -13 8 -8 0 -87 47 -99 60 -3 3 -22 13 -43 23 -24 10
-35 22 -31 29 4 6 3 8 -4 4 -10 -6 -80 21 -92 35 -3 3 -14 8 -25 12 -59 17
-184 75 -177 82 4 5 2 5 -5 1 -7 -3 -56 7 -111 23 -108 32 -115 34 -282 60
-109 18 -229 19 -2466 20 -1293 0 -2353 -1 -2355 -3z m-109 -1891 c46 -10 171
-70 198 -95 12 -11 24 -20 28 -20 4 0 15 -9 25 -21 9 -11 20 -20 24 -19 3 1
40 -22 82 -52 42 -29 101 -71 132 -92 31 -22 91 -65 133 -95 121 -88 353 -251
438 -308 30 -21 57 -40 60 -44 3 -3 15 -11 28 -18 12 -7 20 -17 16 -23 -4 -7
-3 -8 5 -4 7 5 23 -18 45 -66 43 -92 59 -155 52 -205 -3 -21 -5 -60 -6 -86 0
-27 -4 -46 -9 -43 -5 4 -7 -2 -4 -13 6 -23 -29 -101 -74 -165 -41 -57 -41 -57
-88 -111 -19 -22 -47 -59 -61 -82 -15 -23 -32 -39 -37 -36 -6 3 -7 1 -3 -5 4
-6 1 -22 -6 -34 -7 -13 -12 -27 -13 -31 0 -4 -7 -12 -15 -17 -8 -5 -12 -10 -8
-10 4 0 1 -21 -7 -47 -8 -27 -15 -66 -17 -88 -1 -22 -7 -43 -12 -47 -7 -5 -7
-8 2 -8 7 0 12 -13 12 -33 0 -45 38 -150 77 -214 17 -28 30 -54 27 -57 -2 -3
-1 -4 3 -1 7 5 39 -36 36 -46 -1 -3 4 -6 11 -6 15 0 60 -32 107 -75 16 -14 29
-24 29 -22 0 4 83 -56 130 -93 28 -23 226 -168 268 -197 23 -16 42 -32 42 -36
0 -4 11 -12 24 -18 14 -6 33 -18 43 -26 10 -8 47 -36 83 -63 36 -26 67 -51 68
-55 2 -5 8 -8 13 -8 6 0 33 -17 62 -39 29 -21 78 -53 109 -72 31 -18 55 -36
52 -41 -3 -4 1 -5 9 -2 8 3 21 -1 29 -9 8 -8 24 -18 36 -21 12 -4 22 -12 22
-17 0 -6 4 -8 9 -5 5 3 20 -4 33 -17 14 -12 32 -23 39 -25 8 -2 31 -14 51 -28
21 -13 40 -24 43 -24 2 0 66 -40 141 -90 75 -49 140 -90 145 -90 4 0 12 -8 18
-17 5 -10 11 -16 13 -13 4 6 120 -51 129 -63 3 -5 9 -8 13 -7 11 3 106 -23
106 -29 0 -3 10 -6 23 -7 59 -3 99 -9 103 -16 3 -5 10 -5 16 -2 6 4 32 9 57
11 25 2 55 5 66 8 11 2 24 4 28 4 11 1 97 94 97 105 0 18 53 126 62 126 5 0 7
4 4 9 -5 7 131 202 169 242 8 9 15 21 15 27 0 18 82 98 120 118 37 18 140 24
194 11 30 -8 108 -45 116 -56 3 -4 16 -12 30 -19 63 -32 80 -44 80 -54 0 -6 3
-9 6 -5 7 6 96 -51 102 -65 2 -4 8 -8 13 -8 12 0 193 -121 197 -132 2 -4 10
-8 18 -8 8 0 17 -7 20 -15 4 -8 10 -15 16 -15 8 0 134 -85 148 -100 3 -3 12
-9 21 -15 57 -35 139 -97 139 -105 0 -6 3 -9 8 -8 10 3 92 -53 92 -63 0 -5 5
-9 10 -9 17 0 121 -79 166 -125 66 -68 86 -122 85 -229 -1 -106 -6 -136 -30
-192 -25 -56 -106 -165 -116 -156 -5 4 -5 2 -2 -5 4 -6 0 -19 -9 -27 -8 -9
-13 -16 -10 -16 4 0 -5 -23 -20 -52 -27 -53 -64 -97 -170 -202 -102 -101 -132
-126 -149 -126 -9 0 -13 -5 -10 -10 3 -6 -4 -14 -17 -19 -13 -6 -19 -10 -14
-10 5 -1 -22 -21 -60 -46 -38 -24 -74 -48 -80 -52 -22 -17 -197 -111 -209
-113 -3 0 -24 -9 -47 -19 -51 -21 -162 -60 -186 -64 -9 -2 -35 -9 -57 -15 -22
-6 -60 -14 -85 -17 -24 -4 -48 -9 -53 -12 -4 -2 -33 -6 -65 -8 -31 -2 -57 -5
-57 -5 0 -9 -360 -14 -435 -6 -86 9 -186 20 -192 22 -5 1 -11 3 -15 4 -5 1
-12 2 -17 1 -5 -1 -16 1 -25 5 -9 3 -29 8 -46 9 -60 6 -111 14 -145 24 -19 6
-71 18 -115 27 -77 16 -173 47 -252 81 -21 9 -40 17 -43 18 -26 6 -50 18 -50
26 0 6 -4 7 -10 4 -5 -3 -20 0 -32 7 -13 7 -25 12 -28 13 -9 0 -184 79 -218
97 -18 10 -39 18 -47 18 -8 0 -15 5 -15 10 0 6 -7 10 -15 10 -18 0 -57 20 -67
35 -4 6 -8 7 -8 3 0 -9 -264 123 -268 134 -2 5 -10 8 -18 8 -8 0 -32 11 -54
25 -22 14 -44 25 -50 25 -5 0 -10 5 -10 12 0 6 -3 9 -6 5 -3 -3 -35 12 -70 34
-35 21 -69 39 -74 39 -6 0 -10 3 -10 8 0 4 -15 13 -32 21 -18 8 -47 24 -65 37
-17 13 -37 24 -43 24 -6 0 -13 7 -16 15 -4 8 -9 13 -13 11 -6 -4 -76 37 -106
62 -5 4 -18 11 -28 15 -10 4 -15 11 -12 17 3 6 -1 7 -9 4 -9 -3 -16 -1 -16 5
0 6 -6 11 -13 11 -7 0 -23 9 -35 20 -12 11 -23 20 -26 20 -10 0 -236 161 -264
188 -7 6 -17 12 -21 12 -4 0 -16 8 -27 18 -10 10 -57 48 -104 86 -47 38 -84
73 -82 78 1 5 -1 7 -6 4 -4 -2 -28 14 -52 36 -25 22 -71 63 -102 90 -32 28
-55 55 -51 61 3 6 2 7 -4 4 -8 -5 -49 35 -240 235 -22 22 -32 41 -27 49 4 7 3
10 -4 5 -5 -3 -25 13 -43 36 -19 24 -36 45 -39 48 -16 13 -90 120 -83 120 4 0
-3 7 -15 16 -12 8 -22 21 -22 29 0 7 -3 15 -8 17 -23 10 -203 341 -276 508
-16 36 -37 84 -47 107 -11 23 -19 44 -19 47 0 2 -5 17 -12 33 -6 15 -12 33
-14 38 -2 6 -17 48 -34 95 -17 47 -34 95 -36 107 -2 12 -9 34 -14 48 -5 14 -7
25 -4 25 2 0 0 8 -5 18 -5 9 -12 31 -15 47 -3 17 -14 71 -24 122 -10 51 -18
103 -17 117 0 13 -3 22 -7 20 -4 -3 -9 14 -9 38 -3 85 -7 125 -14 147 -6 18
-4 22 6 15 12 -6 12 -5 1 8 -9 12 -11 60 -8 199 6 216 10 253 33 305 9 21 17
41 18 44 1 3 5 12 8 20 16 37 30 76 33 87 13 62 73 215 87 221 4 2 7 12 7 22
0 11 8 23 18 29 9 5 15 11 12 13 -13 9 205 295 221 291 5 -2 8 1 6 6 -3 12 54
73 94 101 19 14 29 17 29 9 0 -8 5 -7 13 4 6 9 22 18 34 20 12 2 25 5 28 8 7
8 93 4 135 -6z"/>
<path d="M7787 3710 c-27 -10 -54 -23 -61 -29 -7 -6 -16 -8 -19 -4 -4 3 -7 1
-7 -5 0 -7 -14 -26 -30 -44 -17 -17 -33 -42 -36 -55 -4 -12 -9 -21 -13 -19
-16 10 -14 -168 3 -208 8 -19 11 -38 8 -42 -4 -4 -1 -4 6 0 6 4 12 2 12 -4 0
-6 18 -30 40 -54 22 -23 36 -47 32 -52 -4 -5 -3 -6 2 -1 12 9 88 -62 80 -75
-3 -5 -2 -7 3 -6 5 2 43 -32 85 -74 42 -43 76 -78 74 -78 -1 0 55 -58 126
-129 l128 -130 -120 -123 c-66 -68 -120 -124 -120 -125 0 -9 -165 -167 -172
-165 -5 1 -7 -1 -4 -6 3 -5 -28 -41 -69 -81 -41 -39 -72 -71 -69 -71 2 0 -7
-17 -20 -37 -71 -108 -43 -274 60 -358 23 -19 46 -35 51 -35 4 0 19 -6 33 -13
46 -23 138 -15 208 18 34 16 62 33 62 37 0 13 88 97 95 90 4 -4 5 0 3 8 -2 8
3 14 10 12 6 -1 11 2 10 6 -2 5 36 48 84 98 48 49 101 103 117 121 16 17 32
29 35 25 3 -3 6 0 6 6 0 14 62 78 72 75 4 -2 7 0 6 5 -4 11 35 52 44 46 5 -3
7 -2 6 3 -2 5 9 22 24 38 l28 30 79 -79 c44 -44 78 -83 75 -88 -3 -5 -2 -7 3
-6 4 2 38 -27 75 -65 37 -37 66 -67 65 -67 -1 0 61 -65 140 -144 117 -119 150
-148 190 -161 89 -31 194 -24 237 17 11 10 26 18 33 18 7 0 13 3 13 8 0 4 14
23 30 42 16 19 30 43 30 52 0 9 5 20 10 23 6 3 10 19 10 34 0 15 5 32 12 39 7
7 8 12 3 12 -6 0 -11 15 -12 33 -3 44 -24 117 -34 117 -4 0 -10 8 -13 18 -3 9
-42 54 -86 99 -44 45 -80 86 -80 92 0 6 -4 10 -8 9 -4 -2 -40 31 -79 72 -40
41 -124 128 -187 193 -64 65 -116 122 -116 127 0 5 74 84 164 177 90 92 194
200 231 238 37 39 72 69 77 67 5 -1 7 1 5 6 -3 4 12 25 34 46 80 81 110 208
73 318 -39 120 -184 200 -299 166 -16 -5 -34 -10 -40 -12 -5 -1 -24 -10 -41
-19 -17 -9 -34 -14 -38 -12 -3 3 -4 2 -2 -1 3 -3 -40 -52 -94 -108 -55 -55
-143 -146 -197 -201 -53 -55 -101 -99 -106 -97 -5 1 -6 -1 -3 -6 7 -12 -78
-94 -89 -85 -4 5 -5 3 -2 -3 6 -10 -47 -74 -62 -74 -13 0 -121 117 -113 124 4
4 2 6 -4 4 -6 -1 -60 48 -120 110 -283 294 -340 349 -380 363 -21 7 -42 12
-46 11 -5 -1 -8 1 -8 6 0 15 -97 9 -143 -8z"/>
</g>
</svg>
